<?xml version="1.0" encoding="UTF-8" standalone="no"?>
<!DOCTYPE svg PUBLIC "-//W3C//DTD SVG 1.1//EN" "http://www.w3.org/Graphics/SVG/1.1/DTD/svg11.dtd">
<svg width="100%" height="100%" viewBox="0 0 333 299" version="1.1" xmlns="http://www.w3.org/2000/svg" xmlns:xlink="http://www.w3.org/1999/xlink" xml:space="preserve" xmlns:serif="http://www.serif.com/" style="fill-rule:evenodd;clip-rule:evenodd;stroke-linejoin:round;stroke-miterlimit:2;">
    <g transform="matrix(4.16667,0,0,4.16667,-6125.37,-6044.71)">
        <path d="M1540.27,1450.73L1535.32,1474.52L1530.57,1492.76L1520.46,1502.43L1523.04,1483.2L1527.42,1450.73L1540.27,1450.73Z" style="fill:rgb(185,240,201);fill-rule:nonzero;"/>
    </g>
    <g transform="matrix(4.16667,0,0,4.16667,-6125.37,-6044.71)">
        <path d="M1513.86,1450.73L1511.65,1491.36L1510.3,1512.14L1499.55,1522.41L1499.46,1498.35L1499.02,1450.73L1513.86,1450.73Z" style="fill:rgb(185,240,201);fill-rule:nonzero;"/>
    </g>
    <g transform="matrix(4.16667,0,0,4.16667,-6125.37,-6044.71)">
        <path d="M1510.3,1512.14L1499.55,1522.41C1481.68,1503.74 1470.54,1478.52 1470.09,1450.73L1484.97,1450.73C1485.31,1468.25 1490.58,1484.57 1499.46,1498.35C1502.62,1503.29 1506.25,1507.91 1510.3,1512.14Z" style="fill:rgb(122,207,196);fill-rule:nonzero;"/>
    </g>
    <g transform="matrix(4.16667,0,0,4.16667,-6125.37,-6044.71)">
        <path d="M1530.57,1492.76L1520.46,1502.43C1517.2,1499.03 1514.25,1495.32 1511.65,1491.36C1504.77,1480.88 1500.37,1468.62 1499.28,1455.42C1499.14,1453.86 1499.07,1452.3 1499.02,1450.73L1513.86,1450.73C1514.19,1462.67 1516.98,1473.78 1523.04,1483.2C1525.26,1486.64 1527.78,1489.83 1530.57,1492.76Z" style="fill:rgb(122,207,196);fill-rule:nonzero;"/>
    </g>
    <g transform="matrix(4.16667,0,0,4.16667,-6125.37,-6044.71)">
        <path d="M1549.81,1473.77L1540.8,1482.38C1538.5,1479.99 1536.45,1477.35 1534.69,1474.52C1530.34,1467.57 1527.73,1459.44 1527.42,1450.73L1540.27,1450.73C1540.7,1459.08 1544.38,1468.1 1549.81,1473.77Z" style="fill:rgb(122,207,196);fill-rule:nonzero;"/>
    </g>
</svg>
