<?xml version="1.0" standalone="no"?>
<!DOCTYPE svg PUBLIC "-//W3C//DTD SVG 20010904//EN"
 "http://www.w3.org/TR/2001/REC-SVG-20010904/DTD/svg10.dtd">
<svg version="1.0" xmlns="http://www.w3.org/2000/svg"
 width="666.000000pt" height="666.000000pt" viewBox="0 0 666.000000 666.000000"
 preserveAspectRatio="xMidYMid meet">
<metadata>
Created by potrace 1.14, written by Peter Selinger 2001-2017
</metadata>
<g transform="translate(0.000000,666.000000) scale(0.100000,-0.100000)"
fill="#000000" stroke="none">
<path d="M5 6158 c8 -227 25 -491 40 -598 3 -19 7 -57 10 -85 2 -27 7 -72 11
-100 3 -27 8 -63 9 -80 2 -16 9 -61 15 -100 6 -38 13 -86 15 -105 2 -19 4 -35
5 -35 1 0 3 -11 6 -25 14 -86 25 -148 29 -170 3 -14 7 -42 10 -62 2 -21 6 -42
9 -47 3 -5 8 -24 10 -42 6 -40 36 -178 66 -299 12 -47 23 -92 24 -100 2 -8 12
-44 21 -80 9 -36 19 -73 20 -82 7 -35 106 -364 115 -383 6 -11 12 -29 13 -40
2 -11 7 -27 10 -35 3 -8 23 -67 45 -130 22 -63 46 -131 54 -150 8 -19 15 -37
16 -40 0 -3 5 -18 11 -33 6 -16 11 -30 11 -31 0 -2 8 -21 17 -42 9 -22 18 -43
19 -49 2 -9 70 -173 96 -235 6 -14 12 -27 13 -30 2 -6 28 -65 90 -200 63 -137
238 -481 304 -594 28 -49 51 -90 51 -92 0 -1 31 -55 70 -120 38 -64 70 -121
70 -125 0 -5 4 -9 8 -9 5 0 15 -12 23 -28 22 -43 321 -488 360 -536 9 -12 184
-240 222 -290 21 -28 46 -59 137 -166 20 -25 50 -61 66 -80 16 -19 33 -40 39
-46 5 -6 39 -44 75 -84 36 -40 100 -110 142 -154 l77 -81 24 25 c22 23 228
220 441 422 44 43 84 78 89 78 4 0 7 7 7 15 0 8 3 15 8 15 7 0 75 63 249 231
l73 69 6 73 c3 39 8 108 10 152 9 155 12 201 19 300 4 55 8 127 10 160 2 33 6
92 9 130 2 39 8 113 11 165 6 94 9 138 21 315 6 97 9 138 19 315 4 63 8 116 9
117 4 4 86 -117 86 -127 0 -5 4 -10 8 -12 4 -1 31 -37 60 -78 28 -41 63 -88
77 -104 14 -16 25 -32 25 -35 0 -3 10 -17 23 -31 12 -14 41 -50 64 -80 23 -30
53 -67 65 -81 13 -15 41 -48 63 -75 69 -84 186 -213 248 -274 18 -18 21 -16
82 43 34 34 138 134 230 222 93 88 200 191 239 228 39 38 123 118 187 179
l117 110 27 101 c15 55 28 107 30 116 2 9 23 93 48 186 49 186 87 331 92 355
2 8 4 15 6 15 1 0 3 9 5 20 1 11 15 63 29 115 14 52 28 106 31 119 3 13 20 80
39 150 18 69 36 142 40 161 4 19 10 40 13 45 4 6 8 17 9 26 4 24 22 66 22 52
1 -13 158 -239 186 -266 8 -9 15 -18 15 -21 0 -3 8 -14 18 -24 9 -11 24 -28
32 -38 40 -51 78 -95 143 -165 l70 -77 75 72 c41 39 115 110 165 159 50 48 91
87 92 87 1 0 38 35 82 78 44 42 137 132 207 198 l127 121 -58 69 c-32 38 -65
77 -73 88 -8 10 -20 23 -26 30 -13 13 -125 174 -139 198 -5 9 -34 57 -62 106
-29 49 -53 94 -53 100 0 6 -3 12 -7 14 -10 4 -123 236 -123 251 0 3 -8 22 -17
43 -9 22 -17 41 -18 44 -6 19 -19 49 -31 73 -8 15 -13 27 -10 27 3 0 -3 24
-14 53 -23 63 -89 298 -96 347 -3 19 -9 51 -14 70 -4 19 -12 58 -16 85 -4 28
-8 52 -9 55 -5 18 -22 187 -24 238 l-1 32 -534 0 c-294 0 -537 -3 -539 -7 -3
-5 -8 -39 -11 -77 -3 -37 -8 -71 -10 -75 -2 -3 -7 -37 -11 -74 -3 -37 -8 -78
-11 -90 -4 -23 -10 -63 -20 -147 -7 -61 -7 -61 -24 -180 -6 -47 -13 -101 -16
-120 -3 -19 -7 -46 -9 -60 -2 -14 -7 -52 -11 -85 -3 -33 -8 -69 -10 -80 -5
-24 -13 -87 -19 -135 -2 -19 -6 -51 -9 -70 -3 -19 -10 -69 -15 -110 -6 -41
-13 -94 -16 -117 -11 -78 -13 -98 -20 -148 -12 -97 -15 -121 -20 -144 -2 -12
-7 -49 -10 -82 -4 -33 -8 -68 -10 -77 -5 -30 -17 -111 -30 -212 -3 -25 -8 -61
-10 -80 -3 -19 -8 -55 -11 -80 -3 -25 -7 -55 -9 -66 -2 -12 -6 -46 -10 -75
-12 -105 -14 -114 -15 -114 -1 0 -3 -16 -5 -35 -1 -19 -6 -53 -10 -75 -4 -22
-8 -50 -8 -62 -1 -12 -5 -19 -9 -17 -24 15 -308 536 -308 566 0 3 -15 39 -34
80 -43 95 -150 383 -160 433 -1 6 -15 50 -30 100 -15 49 -30 97 -32 107 -9 38
-13 56 -37 153 -14 55 -28 114 -31 130 -2 17 -9 55 -15 85 -6 30 -13 66 -16
80 -3 14 -7 36 -9 50 -6 31 -17 97 -21 130 -5 37 -13 100 -20 140 -3 19 -8 62
-11 95 -3 33 -7 74 -9 90 -3 29 -16 195 -21 280 -1 22 -2 70 -3 108 l-1 67
-620 0 -619 0 4 -467 c5 -505 13 -1392 20 -2128 3 -253 6 -472 8 -488 3 -15 0
-30 -5 -33 -4 -3 -6 -10 -3 -15 10 -15 13 -819 4 -825 -5 -3 -9 -1 -9 5 0 6
-31 60 -69 121 -39 60 -67 110 -64 110 3 0 -1 8 -9 18 -15 16 -138 230 -138
238 0 3 -11 22 -25 44 -14 22 -22 40 -19 40 4 0 1 6 -5 14 -24 28 -172 338
-247 516 -25 58 -49 114 -54 125 -12 27 -71 178 -74 190 -2 6 -8 24 -15 40
-19 46 -130 376 -141 415 -5 19 -25 91 -45 160 -32 110 -89 330 -99 385 -6 28
-24 115 -31 145 -3 14 -8 36 -10 50 -2 14 -10 59 -19 100 -8 41 -18 95 -21
120 -4 25 -9 52 -10 60 -15 81 -37 247 -50 375 -30 292 -37 398 -45 668 0 16
-36 17 -620 17 l-621 0 6 -162z"/>
</g>
</svg>
